<svg width="884" height="363" viewBox="0 0 884 363" fill="none" xmlns="http://www.w3.org/2000/svg">
<g clip-path="url(#clip0_386_12)">
<path d="M878.9 360C863.5 371.4 716.1 338.9 667.7 322.2C658.3 319 653.3 315 649 311.5C645.7 308.8 642.1 304.5 639.4 300.7C625.9 281.4 624.1 269 620.3 250.3L603 292.1C600.3 298.7 592.3 304.4 585.2 304.9L435.3 317.4C410.1 319 385.5 309.2 368.2 290.7L287.8 193.6C282.8 188.2 281 178.3 283.8 171.5L301.1 129.9C285.2 140.5 265.7 147.9 242.5 152C240.5 152.4 238.5 152.6 236.4 152.9C230.5 153.6 224.3 153.8 218 153.4C205.3 152.8 191.9 150 177.8 145.2C68.8999 108.5 -0.00010176 63.7 -0.00010176 43.9C-0.600102 32 12.6999 29.6 39.3999 27.9L542 -1.35303e-05C556.9 -0.800014 577.2 7.59999 587.1 18.7L873.5 334.4C884.7 347.3 886 356.5 878.8 360H878.9Z" fill="#200191"/>
</g>
<defs>
<clipPath id="clip0_386_12">
<rect width="883.3" height="362.4" fill="white"/>
</clipPath>
</defs>
</svg>
