<svg width="3193" height="938" viewBox="0 0 3193 938" fill="none" xmlns="http://www.w3.org/2000/svg">
<path d="M411.955 926.841H297.316V858.778C281.782 881.457 262.676 900.279 239.997 915.191C217.317 930.129 188.942 937.585 154.923 937.585C102.989 937.585 64.1803 921.326 38.4978 888.784C12.8154 856.241 0 812.515 0 757.604V479.09H120.904V728.039C120.904 760.271 126.885 784.296 138.82 800.114C150.755 815.932 169.862 823.854 196.14 823.854C229.563 823.854 254.055 811.764 269.563 787.584C285.096 763.403 292.837 731.922 292.837 693.115V479.09H411.955V926.841Z" fill="#200191"/>
<path d="M678.259 489.392C702.44 475.36 730.945 468.344 763.773 468.344C816.303 468.344 855.862 484.317 882.425 516.264C908.988 548.211 922.269 592.533 922.269 649.256V926.864H801.364V678.822C801.364 644.803 794.064 620.157 779.436 604.934C764.808 589.712 744.951 582.1 719.89 582.1C685.25 582.1 660.344 593.88 645.121 617.465C629.898 641.049 622.286 672.841 622.286 712.84V926.864H504.074V479.114H618.713V543.603C634.247 521.52 654.079 503.449 678.259 489.417V489.392Z" fill="#200191"/>
<path d="M1175.16 926.838H1056.94V578.476H966.486V479.062H1056.94V456.668C1056.94 427.413 1061.11 402.353 1069.48 381.434C1077.84 360.542 1089.18 343.377 1103.49 329.941C1117.84 316.504 1134.85 306.511 1154.55 299.935C1174.25 293.36 1195.74 290.098 1219.01 290.098C1235.74 290.098 1250.81 290.848 1264.24 292.324C1277.68 293.826 1291.87 295.767 1306.78 298.149V407.401C1293.06 405.019 1280.81 403.233 1270.07 402.016C1259.32 400.799 1248.86 400.23 1238.72 400.23C1214.85 400.23 1198.28 405.899 1189.01 417.239C1179.76 428.578 1175.13 445.898 1175.13 469.172V479.01H1302.3V578.424H1175.13V926.787L1175.16 926.838Z" fill="#200191"/>
<path d="M1493.86 299.988H1374.77V926.84H1493.86V299.988Z" fill="#200191"/>
<path d="M2262.47 927.721C2246.06 930.103 2230.39 931.294 2215.45 931.294C2173.67 931.294 2141.28 920.55 2118.29 899.062C2095.3 877.574 2083.81 841.148 2083.81 789.81V578.478H2002.3V479.064H2083.81V359.068H2202.02V479.064H2315.75V578.478H2202.02V772.801C2202.02 787.118 2205.59 797.422 2212.76 803.687C2219.93 809.952 2231.27 813.084 2246.78 813.084C2255.74 813.084 2264.85 812.644 2274.09 811.738C2283.34 810.832 2296.02 808.89 2312.15 805.913V917.857C2295.43 922.025 2278.86 925.313 2262.44 927.695L2262.47 927.721Z" fill="#200191"/>
<path d="M1938.23 538.764H1938.2C1931.39 526.907 1923.06 516.551 1913.25 507.723C1880.73 478.494 1831.62 463.867 1765.93 463.867C1752.21 463.867 1739.09 464.514 1726.5 465.835C1694.17 469.2 1665.53 476.889 1640.6 488.928C1605.96 505.652 1581.19 531.023 1566.27 565.042L1561.85 577.883L1605.08 592.769H1605.11L1662.04 612.367C1664.91 608.121 1668.23 604.289 1671.93 600.872C1679.7 593.701 1688.65 587.876 1698.8 583.397C1708.95 578.918 1719.7 575.656 1731.03 573.559C1742.37 571.462 1754.02 570.426 1765.96 570.426C1792.83 570.426 1812.54 574.595 1825.07 582.957C1837.6 591.319 1843.89 602.063 1843.89 615.189V622.36C1843.89 632.508 1836.12 638.489 1820.59 640.275L1758.79 645.686L1697.9 651.019C1682.44 652.339 1667.94 655.213 1654.45 659.64C1649.72 661.219 1645.11 662.954 1640.6 664.896C1623.28 672.352 1608.21 682.06 1595.37 693.995C1582.53 705.93 1572.54 720.117 1565.37 736.531C1558.2 752.944 1554.62 771.3 1554.62 791.622C1554.62 811.945 1558.35 831.466 1565.81 848.475C1573.29 865.484 1583.72 880.111 1597.16 892.357C1610.6 904.602 1626.57 914.155 1645.08 921.016C1663.57 927.876 1683.89 931.32 1705.97 931.32C1711.51 931.32 1716.9 931.138 1722.13 930.776C1750.09 928.886 1773.52 921.896 1792.39 909.806C1814.76 895.489 1831.93 879.36 1843.89 861.471V922.362H1962.1V645.634C1962.1 601.856 1954.15 566.232 1938.26 538.764H1938.23ZM1843.86 740.569C1843.86 753.1 1841.45 764.905 1836.69 775.934C1831.9 786.988 1825.04 796.697 1816.08 805.033C1807.12 813.395 1796.25 820.126 1783.41 825.2C1774.89 828.566 1765.8 830.818 1756.12 831.932C1751.2 832.527 1746.1 832.812 1740.87 832.812C1719.98 832.812 1704.16 828.463 1693.39 819.816C1682.65 811.169 1677.29 799.674 1677.29 785.331C1677.29 772.801 1681.92 762.212 1691.16 753.54C1700.41 744.893 1714.31 739.068 1732.8 736.09L1791.56 728.971L1843.86 722.654V740.569Z" fill="#200191"/>
<path d="M3188.31 356.223C3171.59 368.625 3013.74 339.95 2991.79 312.973C2991.67 312.869 2991.15 312.248 2991.09 312.144C2990.74 311.71 2990.86 311.772 2990.59 311.337C2977.11 292.02 2968.5 272.993 2964.75 254.298L2947.47 296.14C2944.75 302.724 2936.72 308.459 2929.62 308.894L2763.2 319.184C2737.98 320.737 2713.39 310.964 2696.12 292.496L2603.7 193.656C2598.69 188.294 2596.89 178.356 2599.7 171.565L2617.01 129.929C2601.13 140.509 2581.59 147.88 2558.4 151.979C2556.39 152.331 2554.38 152.621 2552.33 152.869C2546.39 153.573 2540.26 153.739 2533.95 153.408C2521.25 152.766 2507.84 150.033 2493.72 145.25C2384.92 108.459 2316.02 63.739 2316.02 43.8632C2315.46 35.6645 2328.71 29.5775 2355.44 27.8384L2858.02 0.0537558C2872.89 -0.753696 2893.2 7.63138 2903.16 18.7287L3182.97 330.654C3194.15 343.511 3195.48 352.786 3188.31 356.223Z" fill="#200191"/>
</svg>
