<svg width="292" height="70" viewBox="0 0 292 70" fill="none" xmlns="http://www.w3.org/2000/svg">
<rect width="291.396" height="70" rx="35" fill="#F5F6FF"/>
<circle cx="55.698" cy="35" r="5.69797" fill="#6198FF"/>
<path d="M85.4017 47V42.0473H74.0543V38.9753L85.8719 22.5498H89.2573V38.5051H92.0471L92.0157 42.0473H89.2573V47H85.4017ZM78.5681 38.5051H85.4017V29.2266L78.5681 38.5051ZM94.2115 47V42.7996H98.4119V47H94.2115ZM108.751 47.3135C104.926 47.3135 101.729 45.37 100.506 41.7338L103.986 40.6053C104.707 42.4548 106.431 43.6773 108.562 43.6773C111.634 43.6773 113.39 41.295 113.39 38.8499C113.39 36.2482 111.352 34.3047 108.813 34.3047C107.183 34.3047 105.71 34.869 104.832 36.2168L101.384 35.0884L103.14 22.5498H115.803V26.0606H106.4L105.522 31.797L105.585 31.891C106.494 31.2014 107.716 30.888 109.221 30.888C113.547 30.888 117.277 33.7091 117.277 38.8499C117.277 43.4892 114.048 47.3135 108.751 47.3135ZM125.706 47L133.01 37.0632H136.803L130.377 47H125.706ZM140.345 32.4866L146.771 22.5498H151.442L144.452 32.4866H140.345ZM144.264 47.3135C140.377 47.3135 137.305 44.4609 137.305 40.5113C137.305 36.687 140.22 33.6464 144.264 33.6464C148.339 33.6464 151.222 36.687 151.222 40.5113C151.222 44.3356 148.307 47.3135 144.264 47.3135ZM144.295 44.0534C146.207 44.0534 147.774 42.4861 147.774 40.5113C147.774 38.5051 146.238 36.9065 144.295 36.9065C142.351 36.9065 140.784 38.5051 140.784 40.5113C140.784 42.4861 142.351 44.0534 144.295 44.0534ZM132.885 35.9034C128.998 35.9034 125.926 33.0509 125.926 29.1012C125.926 25.277 128.841 22.2364 132.885 22.2364C136.928 22.2364 139.844 25.277 139.844 29.1012C139.844 32.9255 136.928 35.9034 132.885 35.9034ZM132.885 32.6434C134.797 32.6434 136.364 31.076 136.364 29.1012C136.364 27.095 134.828 25.4964 132.885 25.4964C130.941 25.4964 129.405 27.095 129.405 29.1012C129.405 31.076 130.941 32.6434 132.885 32.6434Z" fill="#6198FF"/>
<path d="M190.762 47L189.069 41.7965H178.756L177.064 47H173.929L181.985 22.5498H185.809L193.897 47H190.762ZM179.697 38.8813H188.097L183.897 25.9352L179.697 38.8813ZM196.59 47V22.5498H203.643C208.157 22.5498 212.075 24.556 212.075 29.7281C212.075 34.5555 208.094 36.9378 203.643 36.9378H199.662V47H196.59ZM199.662 33.9913H203.705C206.683 33.9913 209.003 32.612 209.003 29.6968C209.003 26.7502 206.683 25.465 203.705 25.465H199.662V33.9913ZM219.799 47V39.2888L212.464 22.5498H215.787L221.335 35.872L226.883 22.5498H230.143L222.871 39.2261V47H219.799Z" fill="#00041B"/>
</svg>
